<?xml version="1.0" encoding="utf-8"?>
<!-- Generator: Adobe Illustrator 16.0.3, SVG Export Plug-In . SVG Version: 6.00 Build 0)  -->
<!DOCTYPE svg PUBLIC "-//W3C//DTD SVG 1.1//EN" "http://www.w3.org/Graphics/SVG/1.1/DTD/svg11.dtd">
<svg version="1.1" id="Layer_1" xmlns="http://www.w3.org/2000/svg" xmlns:xlink="http://www.w3.org/1999/xlink" x="0px" y="0px"
	 width="325px" height="40px" viewBox="0 0 325 40" enable-background="new 0 0 325 40" xml:space="preserve">
<polygon points="151.017,34.032 148.789,34.032 154.918,16.304 157.029,16.304 "/>
<rect x="163.119" y="16.304" fill="#4EB974" width="2.229" height="17.728"/>
<g>
	<path fill="#4EB974" d="M185.732,25.167c0,5.902-3.723,9.065-7.951,9.065c-4.226,0-7.95-3.163-7.95-9.065
		c0-5.9,3.72-9.062,7.95-9.062C182.013,16.105,185.732,19.27,185.732,25.167 M172.134,25.167c0,4.636,2.506,6.94,5.647,6.94
		s5.648-2.305,5.648-6.94c0-4.634-2.509-6.938-5.648-6.938S172.134,20.536,172.134,25.167"/>
	<polygon fill="#4EB974" points="187.827,16.304 200.287,16.304 200.287,18.414 195.151,18.414 195.151,34.032 192.921,34.032 
		192.921,18.433 187.827,18.433 	"/>
	<path d="M217.384,28.867c-0.783,3.113-3.24,5.365-6.938,5.365c-4.129,0-8.001-3.013-8.001-9.065c0-6.055,3.867-9.063,8.001-9.063
		c3.697,0,6.155,2.252,6.938,5.368l-2.151,0.63c-0.813-2.481-2.461-3.865-4.786-3.865c-3.268,0-5.698,2.354-5.698,6.939
		c0,4.583,2.419,6.93,5.698,6.93c2.328,0,3.974-1.406,4.786-3.868L217.384,28.867z"/>
	<path d="M236.829,25.167c0,5.902-3.721,9.065-7.952,9.065c-4.229,0-7.949-3.163-7.949-9.065c0-5.9,3.723-9.062,7.949-9.062
		C233.105,16.104,236.829,19.27,236.829,25.167 M223.234,25.167c0,4.636,2.505,6.94,5.627,6.94c3.118,0,5.647-2.305,5.647-6.94
		c0-4.634-2.491-6.938-5.632-6.938C225.737,18.229,223.234,20.536,223.234,25.167"/>
	<polygon points="253.721,16.304 253.721,34.032 251.131,34.032 243.11,19.927 243.11,34.032 240.88,34.032 240.88,16.304 
		243.491,16.304 251.484,30.41 251.484,16.304 	"/>
	<polygon points="271.494,16.304 271.494,34.032 268.89,34.032 260.886,19.927 260.886,34.032 258.655,34.032 258.655,16.304 
		261.266,16.304 269.27,30.41 269.27,16.304 	"/>
	<polygon points="286.613,16.304 286.613,18.414 278.658,18.414 278.658,23.521 285.094,23.521 285.094,25.648 278.658,25.648 
		278.658,31.906 286.863,31.906 286.863,34.017 276.449,34.017 276.449,16.304 	"/>
	<path d="M304.995,28.867c-0.782,3.113-3.24,5.365-6.938,5.365c-4.126,0-8.004-3.013-8.004-9.065c0-6.055,3.875-9.063,8.004-9.063
		c3.698,0,6.156,2.252,6.938,5.368l-2.149,0.63c-0.813-2.481-2.463-3.865-4.789-3.865c-3.268,0-5.697,2.354-5.697,6.939
		c0,4.583,2.43,6.93,5.697,6.93c2.33,0,3.977-1.406,4.789-3.868L304.995,28.867z"/>
	<polygon points="307.579,16.304 320.037,16.304 320.037,18.414 314.921,18.414 314.921,34.032 312.694,34.032 312.694,18.433 
		307.579,18.433 	"/>
</g>
<g>
	<g>
		<g>
			<polygon id="XMLID_47_" fill="#41C363" points="22.881,32.774 13.034,32.774 11.986,36 23.929,36 			"/>
			<polygon id="XMLID_46_" points="18.793,8.542 23.518,8.542 31.916,34.388 27.19,34.388 			"/>
			<polygon id="XMLID_45_" points="17.123,8.542 12.398,8.542 4,34.388 8.726,34.388 			"/>
			<g>
				<polygon id="XMLID_44_" points="141.04,8.542 122.781,8.542 122.781,12.335 129.776,12.335 129.776,34.388 134.045,34.388 
					134.045,12.335 141.04,12.335 				"/>
				<polygon id="XMLID_43_" points="97.228,8.542 97.228,34.388 113.826,34.388 113.826,30.594 101.496,30.594 101.496,23.242 
					112.062,23.242 112.062,19.448 101.496,19.448 101.496,12.335 113.826,12.335 113.826,8.542 				"/>
				<polygon id="XMLID_42_" points="52.904,8.542 46.86,27.858 40.818,8.548 40.815,8.542 36.09,8.542 44.488,34.388 49.231,34.388 
					57.628,8.542 				"/>
				<polygon id="XMLID_41_" points="70.131,8.542 66.492,8.542 66.492,34.388 70.761,34.388 70.761,17.107 82.417,34.388 
					86.055,34.388 86.055,8.542 81.787,8.542 81.787,25.82 				"/>
			</g>
		</g>
		<g id="XMLID_33_">
			<g id="XMLID_34_">
				<g id="XMLID_35_">
					<path id="XMLID_36_" d="M145.277,12.332c-1.047,0-1.896-0.848-1.896-1.896c0-1.046,0.848-1.895,1.896-1.895
						s1.896,0.849,1.896,1.895C147.172,11.484,146.324,12.332,145.277,12.332z M145.277,8.892c-0.848,0-1.519,0.681-1.519,1.544
						c0,0.864,0.671,1.544,1.519,1.544c0.848,0,1.513-0.68,1.513-1.544C146.79,9.573,146.125,8.892,145.277,8.892z M145.675,11.458
						l-0.419-0.812h-0.261v0.812h-0.377V9.41h0.77c0.387,0,0.659,0.288,0.659,0.628c0,0.288-0.178,0.476-0.402,0.555l0.456,0.864
						H145.675z M145.339,9.729h-0.345v0.618h0.345c0.2,0,0.336-0.136,0.336-0.309C145.675,9.866,145.539,9.729,145.339,9.729z"/>
				</g>
			</g>
		</g>
	</g>
</g>
</svg>
