<?xml version="1.0" encoding="utf-8"?>
<!-- Generator: Adobe Illustrator 16.0.0, SVG Export Plug-In . SVG Version: 6.00 Build 0)  -->
<!DOCTYPE svg PUBLIC "-//W3C//DTD SVG 1.1//EN" "http://www.w3.org/Graphics/SVG/1.1/DTD/svg11.dtd">
<svg version="1.1" id="Capa_1" xmlns="http://www.w3.org/2000/svg" xmlns:xlink="http://www.w3.org/1999/xlink" x="0px" y="0px"
	 width="300px" height="300px" viewBox="0 0 300 300" enable-background="new 0 0 300 300" xml:space="preserve">
<g>
	<g>
		<path fill="#41C363" d="M297.277,143.698l-49.039-46.154c-2.513-2.367-6.193-3.012-9.363-1.642
			c-3.169,1.369-5.221,4.491-5.221,7.944v20.193h-57.692V66.346h20.192c3.452,0,6.574-2.052,7.944-5.221
			c1.369-3.169,0.724-6.85-1.643-9.363L156.302,2.723C154.666,0.985,152.386,0,150,0s-4.667,0.985-6.302,2.723L97.544,51.762
			c-2.367,2.514-3.012,6.194-1.642,9.363c1.369,3.169,4.491,5.221,7.944,5.221h20.193v57.693H66.346v-20.193
			c0-3.452-2.052-6.575-5.221-7.944c-3.17-1.37-6.85-0.725-9.363,1.642L2.723,143.698C0.985,145.333,0,147.614,0,150
			s0.985,4.666,2.723,6.302l49.039,46.153c2.514,2.367,6.193,3.013,9.363,1.643c3.169-1.369,5.221-4.491,5.221-7.943v-20.193h57.692
			v57.693h-20.192c-3.452,0-6.575,2.051-7.944,5.221c-1.369,3.17-0.724,6.85,1.643,9.363l46.154,49.038
			c1.635,1.738,3.916,2.724,6.302,2.724c2.385,0,4.667-0.986,6.301-2.724l46.154-49.038c2.366-2.514,3.012-6.193,1.643-9.363
			s-4.492-5.221-7.944-5.221h-20.192v-57.693h57.692v20.193c0,3.451,2.052,6.574,5.222,7.943s6.85,0.725,9.363-1.643l49.037-46.153
			c1.738-1.635,2.724-3.916,2.724-6.302S299.015,145.333,297.277,143.698z"/>
	</g>
</g>
</svg>
