<svg id="Layer_1" data-name="Layer 1" xmlns="http://www.w3.org/2000/svg" width="41.752" height="41.7539" viewBox="0 0 41.752 41.7539"><defs><style>.cls-1{fill:#41c363;}</style></defs><title>icon-location</title><path class="cls-1" d="M29.4678,1V11.3789l-5.6934,3.3804V9.00684L20.9277,10.7856l-6.6425,3.9737V9.00684L11.439,10.7856,1.94873,16.479,1,17.0132V42.7539H42.752V1H29.4678Zm3.7959,3.7959H38.958V38.958H4.7959V19.0894l5.6934-3.3809v5.7524l2.8466-1.7788,6.6426-3.9736v5.7524l2.8467-1.7788,9.4883-5.6933.9502-.5342V4.7959ZM8.59131,23.7744v3.7959H12.3872V23.7744Zm7.59179,0v3.7959h3.7954V23.7744Zm7.5913,0v3.7959h3.7959V23.7744Zm7.5918,0v3.7959h3.7949V23.7744ZM8.59131,31.3662v3.7949H12.3872V31.3662Zm7.59179,0v3.7949h3.7954V31.3662Zm7.5913,0v3.7949h3.7959V31.3662Zm7.5918,0v3.7949h3.7949V31.3662Z" transform="translate(-1 -1)"/></svg>