<svg id="Layer_1" data-name="Layer 1" xmlns="http://www.w3.org/2000/svg" width="41.7383" height="43.24999" viewBox="0 0 41.7383 43.24999"><defs><style>.cls-1{fill:#3082f1;}</style></defs><title>icon-energy</title><path class="cls-1" d="M41.4287.39941,39.0596,1.45264l-11.1592,4.791L15.0552,1.40039l-.6314-.21045-.6318.2627L2.00049,6.50635,1,6.92773V39.251l13.4766-5.792V29.8262h-.0528L4.36865,34.0898V9.13818L14.5288,4.76855,27.373,9.6123l.6329.21.6308-.26319,9.4229-4.05322V26.5635h3.3691V.39941ZM12.792,9.7168v3.3691h3.3691V9.7168Zm13.4766,1.6855V14.771h3.3681V11.4023ZM12.792,16.4556v3.3696h3.3691V16.4556Zm13.4766,1.6845v3.3687h3.3681V18.1401ZM12.792,23.1943v3.3692h3.3691V23.1943Zm13.4766,1.6846V28.249h3.3681V24.8789Zm.7431,8.1152H24.6943v9.8887h2.3174Zm3.7842,6.1045V36.7803H20.9072v2.3183Z" transform="translate(-1 -0.39941)"/><path class="cls-1" d="M34.4844,40.6084a2.90346,2.90346,0,0,1,1.9511-2.7412v-.0518a2.649,2.649,0,0,1-1.58-2.3867c0-1.8496,1.665-3.0752,3.8496-3.0752,2.5556,0,3.6142,1.4795,3.6142,2.8057a2.664,2.664,0,0,1-1.581,2.4053v.0507a2.88983,2.88983,0,0,1,2,2.7217c0,1.9854-1.6621,3.3125-4.2012,3.3125C35.7627,43.6494,34.4844,42.0859,34.4844,40.6084Zm5.6494-.085c0-.958-.707-1.5302-1.7158-1.7998a1.65653,1.65653,0,0,0-1.3272,1.6328,1.49775,1.49775,0,0,0,1.5469,1.5293A1.3738,1.3738,0,0,0,40.1338,40.5234Zm-2.876-5.1767c0,.7383.6748,1.208,1.5479,1.4775a1.49648,1.49648,0,0,0,1.1103-1.3955,1.25279,1.25279,0,0,0-1.3291-1.3437A1.21831,1.21831,0,0,0,37.2578,35.3467Z" transform="translate(-1 -0.39941)"/></svg>