<svg id="Layer_1" data-name="Layer 1" xmlns="http://www.w3.org/2000/svg" width="43.44076" height="43.39947" viewBox="0 0 43.44076 43.39947"><defs><style>.cls-1{fill:#f26a3f;fill-rule:evenodd;}</style></defs><title>icon-indoor</title><path class="cls-1" d="M21.8291,43.541c-5.9644,0-11.92871-.0254-17.89258.0195a1.91238,1.91238,0,0,1-2.13574-2.1591c.04346-8.0332.01807-16.0674.02783-24.1006a.82509.82509,0,0,0-.46-.8594,2.47325,2.47325,0,0,1-.23681-4.0996,5.48,5.48,0,0,1,.523-.3413Q10.95947,6.3352,20.2598.667A2.776,2.776,0,0,1,23.4297.64941Q32.81055,6.38574,42.2148,12.0879a2.43326,2.43326,0,0,1,.4483,4.0952,1.80231,1.80231,0,0,0-.7686,1.7564q.01905,11.789.0078,23.58c0,1.4317-.5908,2.0215-2.0224,2.0215Zm16.7188-6.2558h-.6631q-6.26085,0-12.5176-.002a1.67465,1.67465,0,0,1-1.835-1.8506c-.0029-1.5127-.0176-3.0263.0108-4.5371.0088-.4228-.1201-.582-.5215-.7197a6.57554,6.57554,0,0,1-4.4136-7.2905,6.67612,6.67612,0,0,1,13.0728-.5831,6.41787,6.41787,0,0,1-3.5703,7.5337,1.70252,1.70252,0,0,0-1.251,2.083,16.54144,16.54144,0,0,1,.0146,1.9922H38.5371c.0078-.1142.0186-.1972.0186-.2812q.00285-8.7627.0146-17.5249c0-.356-.1894-.4776-.4287-.6231q-7.9233-4.8207-15.8408-9.65426a.714.714,0,0,0-.8784,0Q13.53345,10.65577,5.62451,15.4502a.82223.82223,0,0,0-.47119.811q.02271,11.6859.01123,23.3667v.5352H38.5479ZM28.5391,23.9395a3.33682,3.33682,0,1,0-3.3623,3.3222A3.32652,3.32652,0,0,0,28.5391,23.9395Z" transform="translate(-0.15464 -0.16114)"/></svg>