<svg id="Layer_1" data-name="Layer 1" xmlns="http://www.w3.org/2000/svg" width="41.73605" height="43.40848" viewBox="0 0 41.73605 43.40848"><defs><style>.cls-1{fill:#ecb41f;fill-rule:evenodd;}</style></defs><title>icon-fuel</title><path class="cls-1" d="M23.6787,33.9121H35.2119c0-1.1406.0127-2.2656-.0195-3.3887-.0039-.1132-.2764-.2568-.4483-.3203a6.55375,6.55375,0,0,1-4.3681-4.7929A6.67787,6.67787,0,1,1,43.4707,22.813a6.57668,6.57668,0,0,1-4.4404,7.3706.59526.59526,0,0,0-.4854.6934c.0264,1.5283.0147,3.0595.0108,4.5888a1.6698,1.6698,0,0,1-1.8223,1.8125q-6.20655.00585-12.4141.002h-.6757V39.916c0,.5928.0019,1.1826-.001,1.7744a1.66519,1.66519,0,0,1-1.8345,1.8448q-6.5457.00135-13.09277.0009-2.53051,0-5.06006-.0009a1.66308,1.66308,0,0,1-1.833-1.8457q.00219-20.2383-.001-40.47807A.66193.66193,0,0,1,2.188.55029,2.55108,2.55108,0,0,1,4.99609.54785Q14.50071,6.33179,24.0049,12.1172a2.50408,2.50408,0,0,1-.0498,4.4316.65681.65681,0,0,0-.2998.4551q-.0162,8.3973-.001,16.7949A.87329.87329,0,0,0,23.6787,33.9121Zm-3.3974,6.2666c.0083-.1338.0185-.2197.0185-.3037q.0015-11.8887-.0137-23.7788a.77514.77514,0,0,0-.3266-.5537Q12.76415,11.1319,5.54883,6.75342a3.23655,3.23655,0,0,0-.352-.15967v33.585ZM33.5498,23.8848a3.33585,3.33585,0,1,0,3.3857-3.2979A3.31947,3.31947,0,0,0,33.5498,23.8848Z" transform="translate(-1.82129 -0.12789)"/></svg>