<?xml version="1.0" encoding="utf-8"?>
<!-- Generator: Adobe Illustrator 16.0.3, SVG Export Plug-In . SVG Version: 6.00 Build 0)  -->
<!DOCTYPE svg PUBLIC "-//W3C//DTD SVG 1.1//EN" "http://www.w3.org/Graphics/SVG/1.1/DTD/svg11.dtd">
<svg version="1.1" id="Layer_1" xmlns="http://www.w3.org/2000/svg" xmlns:xlink="http://www.w3.org/1999/xlink" x="0px" y="0px"
	 width="350.702px" height="68px" viewBox="0 0 350.702 68" enable-background="new 0 0 350.702 68" xml:space="preserve">
<g>
	<g>
		<path fill="none" stroke="#FFFFFF" stroke-width="1.5" d="M12.621,26.559c-1.753,0.006-3.506,0.01-5.26,0.017
			c-0.73,0.006-0.882-0.146-0.94-0.87c-0.2-2.403,0.187-4.715,1.244-6.881c2.046-4.182,5.364-6.794,9.952-7.614
			c2.798-0.498,5.532-0.137,7.938,0.938"/>
		<path fill="none" stroke="#FFFFFF" stroke-width="1.5" d="M20.517,29.174c-1.439-0.032-2.621-0.804-3.171-2.13
			c-0.625-1.5-0.991-3.079-1.297-4.669c-0.215-1.113-0.386-2.236-0.562-3.354c-0.025-0.171-0.011-0.369,0.047-0.533
			c0.101-0.29,0.456-0.438,0.757-0.341c0.133,0.044,0.265,0.109,0.377,0.192c1.942,1.431,3.843,2.914,5.551,4.627
			c0.293,0.292,0.567,0.608,0.845,0.919c1.575,1.761,0.727,4.457-1.596,5.122C21.159,29.091,20.833,29.12,20.517,29.174z"/>
		<path fill="none" stroke="#41C363" stroke-width="1.5" d="M25.479,12.113c2.834,1.246,5.224,3.476,6.724,6.454
			c1.114,2.21,1.563,4.563,1.372,7.037c-0.01,0.111-0.01,0.223-0.018,0.334c-0.029,0.371-0.273,0.632-0.646,0.632
			c-1.914,0.001-3.229-0.005-5.145-0.015"/>
	</g>
</g>
<g>
	<g>
		<path fill="none" stroke="#FFFFFF" stroke-width="1.5" d="M12.621,57.141c-1.753,0.006-3.506,0.01-5.26,0.021
			c-0.73,0.007-0.882-0.146-0.94-0.869c-0.2-2.398,0.187-4.723,1.244-6.887c2.046-4.184,5.364-6.797,9.952-7.609
			c2.798-0.498,5.532-0.141,7.938,0.938"/>
		<path fill="none" stroke="#FFFFFF" stroke-width="1.5" d="M20.517,59.754c-1.439-0.031-2.621-0.804-3.171-2.13
			c-0.625-1.5-0.991-3.079-1.297-4.67c-0.215-1.113-0.386-2.236-0.562-3.354c-0.025-0.172-0.011-0.369,0.047-0.533
			c0.101-0.289,0.456-0.438,0.757-0.342c0.133,0.045,0.265,0.109,0.377,0.192c1.942,1.431,3.843,2.914,5.551,4.627
			c0.293,0.293,0.567,0.608,0.845,0.921c1.575,1.76,0.727,4.456-1.596,5.121C21.159,59.671,20.833,59.699,20.517,59.754z"/>
		<path fill="none" stroke="#000000" stroke-width="1.5" d="M25.479,42.691c2.834,1.246,5.224,3.478,6.724,6.455
			c1.114,2.209,1.563,4.563,1.372,7.035c-0.01,0.104-0.01,0.225-0.018,0.334c-0.029,0.365-0.273,0.633-0.646,0.633
			c-1.914,0.002-3.229-0.004-5.145-0.021"/>
	</g>
</g>
<g>
	<path fill="none" stroke="#FFFFFF" stroke-width="1.5" stroke-miterlimit="10" d="M221.377,24.31c0-2.941-2.383-5.323-5.317-5.323"
		/>
	<circle fill="none" stroke="#FFFFFF" stroke-width="1.5" stroke-miterlimit="10" cx="216.062" cy="11.041" r="5.321"/>
	<path fill="none" stroke="#41C363" stroke-width="1.5" stroke-miterlimit="10" d="M216.062,18.987
		c-2.938,0-5.324,2.382-5.324,5.323"/>
	<path fill="none" stroke="#FFFFFF" stroke-width="1.5" stroke-miterlimit="10" d="M210.739,24.31v5.556h8.713"/>
	<path fill="none" stroke="#FFFFFF" stroke-width="1.5" stroke-miterlimit="10" d="M212.667,29.865h8.711V24.31"/>
</g>
<g>
	<path fill="none" stroke="#000000" stroke-width="1.5" stroke-miterlimit="10" d="M221.377,54.645c0-2.938-2.383-5.324-5.317-5.324
		"/>
	<circle fill="none" stroke="#000000" stroke-width="1.5" stroke-miterlimit="10" cx="216.062" cy="41.375" r="5.32"/>
	<path fill="none" stroke="#FFFFFF" stroke-width="1.5" stroke-miterlimit="10" d="M216.062,49.32c-2.938,0-5.324,2.381-5.324,5.322
		"/>
	<path fill="none" stroke="#000000" stroke-width="1.5" stroke-miterlimit="10" d="M210.739,54.645V60.2h8.713"/>
	<path fill="none" stroke="#000000" stroke-width="1.5" stroke-miterlimit="10" d="M212.667,60.199h8.711v-5.557"/>
</g>
<polyline fill="none" stroke="#41C363" stroke-width="1.5" stroke-linecap="round" stroke-linejoin="round" stroke-miterlimit="10" points="
	247.718,20.963 247.074,20.963 247.074,14.573 251.015,14.573 "/>
<polyline fill="none" stroke="#FFFFFF" stroke-width="1.5" stroke-linecap="round" stroke-linejoin="round" stroke-miterlimit="10" points="
	252.378,14.573 253.462,14.573 253.462,20.963 250.271,20.963 "/>
<line fill="none" stroke="#41C363" stroke-width="1.5" stroke-linecap="round" stroke-linejoin="round" stroke-miterlimit="10" x1="262.458" y1="23.234" x2="257.401" y2="23.234"/>
<line fill="none" stroke="#FFFFFF" stroke-width="1.5" stroke-linecap="round" stroke-linejoin="round" stroke-miterlimit="10" x1="257.401" y1="12.303" x2="262.458" y2="12.303"/>
<line fill="none" stroke="#FFFFFF" stroke-width="1.5" stroke-linecap="round" stroke-linejoin="round" stroke-miterlimit="10" x1="257.401" y1="17.769" x2="262.458" y2="17.769"/>
<line fill="none" stroke="#FFFFFF" stroke-width="1.5" stroke-linecap="round" stroke-linejoin="round" stroke-miterlimit="10" x1="243.134" y1="23.234" x2="238.078" y2="23.234"/>
<line fill="none" stroke="#FFFFFF" stroke-width="1.5" stroke-linecap="round" stroke-linejoin="round" stroke-miterlimit="10" x1="238.078" y1="12.303" x2="243.134" y2="12.303"/>
<line fill="none" stroke="#FFFFFF" stroke-width="1.5" stroke-linecap="round" stroke-linejoin="round" stroke-miterlimit="10" x1="238.078" y1="17.769" x2="243.134" y2="17.769"/>
<line fill="none" stroke="#FFFFFF" stroke-width="1.5" stroke-linecap="round" stroke-linejoin="round" stroke-miterlimit="10" x1="255.733" y1="5.578" x2="255.733" y2="10.635"/>
<line fill="none" stroke="#FFFFFF" stroke-width="1.5" stroke-linecap="round" stroke-linejoin="round" stroke-miterlimit="10" x1="244.806" y1="10.635" x2="244.806" y2="5.578"/>
<line fill="none" stroke="#FFFFFF" stroke-width="1.5" stroke-linecap="round" stroke-linejoin="round" stroke-miterlimit="10" x1="250.271" y1="10.635" x2="250.271" y2="5.578"/>
<line fill="none" stroke="#FFFFFF" stroke-width="1.5" stroke-linecap="round" stroke-linejoin="round" stroke-miterlimit="10" x1="255.733" y1="24.902" x2="255.733" y2="29.96"/>
<line fill="none" stroke="#FFFFFF" stroke-width="1.5" stroke-linecap="round" stroke-linejoin="round" stroke-miterlimit="10" x1="244.806" y1="29.96" x2="244.806" y2="24.902"/>
<line fill="none" stroke="#FFFFFF" stroke-width="1.5" stroke-linecap="round" stroke-linejoin="round" stroke-miterlimit="10" x1="250.271" y1="29.96" x2="250.271" y2="24.902"/>
<polyline fill="none" stroke="#FFFFFF" stroke-width="1.5" stroke-linecap="round" stroke-linejoin="round" stroke-miterlimit="10" points="
	256.496,26.349 241.688,26.349 241.688,9.188 258.851,9.188 258.851,18.383 "/>
<polyline fill="none" stroke="#41C363" stroke-width="1.5" stroke-linecap="square" stroke-linejoin="round" stroke-miterlimit="10" points="
	258.851,19.175 258.851,26.349 257.187,26.349 "/>
<polyline fill="none" stroke="#000000" stroke-width="1.5" stroke-linecap="round" stroke-linejoin="round" stroke-miterlimit="10" points="
	247.718,50.963 247.074,50.963 247.074,44.573 251.015,44.573 "/>
<polyline fill="none" stroke="#FFFFFF" stroke-width="1.5" stroke-linecap="round" stroke-linejoin="round" stroke-miterlimit="10" points="
	252.378,44.573 253.462,44.573 253.462,50.963 250.271,50.963 "/>
<line fill="none" stroke="#000000" stroke-width="1.5" stroke-linecap="round" stroke-linejoin="round" stroke-miterlimit="10" x1="262.458" y1="53.234" x2="257.401" y2="53.234"/>
<line fill="none" stroke="#FFFFFF" stroke-width="1.5" stroke-linecap="round" stroke-linejoin="round" stroke-miterlimit="10" x1="257.401" y1="42.303" x2="262.458" y2="42.303"/>
<line fill="none" stroke="#FFFFFF" stroke-width="1.5" stroke-linecap="round" stroke-linejoin="round" stroke-miterlimit="10" x1="257.401" y1="47.77" x2="262.458" y2="47.77"/>
<line fill="none" stroke="#FFFFFF" stroke-width="1.5" stroke-linecap="round" stroke-linejoin="round" stroke-miterlimit="10" x1="243.134" y1="53.234" x2="238.078" y2="53.234"/>
<line fill="none" stroke="#FFFFFF" stroke-width="1.5" stroke-linecap="round" stroke-linejoin="round" stroke-miterlimit="10" x1="238.078" y1="42.303" x2="243.134" y2="42.303"/>
<line fill="none" stroke="#FFFFFF" stroke-width="1.5" stroke-linecap="round" stroke-linejoin="round" stroke-miterlimit="10" x1="238.078" y1="47.77" x2="243.134" y2="47.77"/>
<line fill="none" stroke="#FFFFFF" stroke-width="1.5" stroke-linecap="round" stroke-linejoin="round" stroke-miterlimit="10" x1="255.733" y1="35.578" x2="255.733" y2="40.635"/>
<line fill="none" stroke="#FFFFFF" stroke-width="1.5" stroke-linecap="round" stroke-linejoin="round" stroke-miterlimit="10" x1="244.806" y1="40.635" x2="244.806" y2="35.578"/>
<line fill="none" stroke="#FFFFFF" stroke-width="1.5" stroke-linecap="round" stroke-linejoin="round" stroke-miterlimit="10" x1="250.271" y1="40.635" x2="250.271" y2="35.578"/>
<line fill="none" stroke="#FFFFFF" stroke-width="1.5" stroke-linecap="round" stroke-linejoin="round" stroke-miterlimit="10" x1="255.733" y1="54.902" x2="255.733" y2="59.96"/>
<line fill="none" stroke="#FFFFFF" stroke-width="1.5" stroke-linecap="round" stroke-linejoin="round" stroke-miterlimit="10" x1="244.806" y1="59.96" x2="244.806" y2="54.902"/>
<line fill="none" stroke="#FFFFFF" stroke-width="1.5" stroke-linecap="round" stroke-linejoin="round" stroke-miterlimit="10" x1="250.271" y1="59.96" x2="250.271" y2="54.902"/>
<polyline fill="none" stroke="#FFFFFF" stroke-width="1.5" stroke-linecap="round" stroke-linejoin="round" stroke-miterlimit="10" points="
	256.496,56.35 241.688,56.35 241.688,39.188 258.851,39.188 258.851,48.383 "/>
<polyline fill="none" stroke="#000000" stroke-width="1.5" stroke-linecap="square" stroke-linejoin="round" stroke-miterlimit="10" points="
	258.851,49.175 258.851,56.35 257.187,56.35 "/>
<g>
	<path fill="none" stroke="#FFFFFF" stroke-width="1.5" stroke-miterlimit="10" d="M285.871,28.433c-0.345,0-0.692,0-1.033,0
		c-1.444,0-4.438,0.002-5.883-0.001c-1.138-0.001-2.017-0.667-2.304-1.741c-0.055-0.213-0.08-0.442-0.08-0.664
		c-0.01-2.685-0.004-5.368-0.004-8.048c0-2.673-0.006-5.349,0-8.022c0.002-1.405,0.998-2.417,2.408-2.417
		c4.689-0.004,9.394,0.003,14.094-0.006c1.373-0.001,2.412,1.103,2.41,2.351c-0.021,2.319-0.002,6.96-0.008,9.28"/>
</g>
<g>
	<path fill="none" stroke="#FFFFFF" stroke-width="1.5" stroke-miterlimit="10" d="M281.267,11.976c-0.086,0-0.16,0.071-0.16,0.158
		v2.04c0,0.088,0.07,0.159,0.16,0.159h8.982c0.088,0,0.158-0.067,0.158-0.159v-2.04c0-0.089-0.07-0.158-0.158-0.158H281.267z"/>
</g>
<g>
	<g>
		<path fill="none" stroke="#41C363" stroke-width="1.5" stroke-miterlimit="10" d="M288.569,19.62
			c4.685,0.589,8.361,4.445,8.927,8.912"/>
	</g>
	<g>
		<path fill="none" stroke="#FFFFFF" stroke-width="1.5" stroke-miterlimit="10" d="M288.563,22.906
			c3.023,0.576,5.174,3.077,5.629,5.627"/>
	</g>
	<g>
		<path fill="#FFFFFF" d="M289.601,26.674c0.521,0.002,0.938,0.427,0.932,0.96c-0.008,0.513-0.426,0.919-0.948,0.917
			c-0.522-0.003-0.937-0.425-0.935-0.962C288.66,27.082,289.08,26.672,289.601,26.674z"/>
	</g>
</g>
<g>
	<path fill="none" stroke="#FFFFFF" stroke-width="1.5" stroke-miterlimit="10" d="M285.606,17.787h-5.127"/>
</g>
<g>
	<path fill="none" stroke="#FFFFFF" stroke-width="1.5" stroke-miterlimit="10" d="M285.606,21.06h-5.127"/>
</g>
<g>
	<path fill="none" stroke="#FFFFFF" stroke-width="1.5" stroke-miterlimit="10" d="M285.606,24.334h-5.127"/>
</g>
<g>
	<path fill="none" stroke="#41C363" stroke-width="1.5" stroke-miterlimit="10" d="M285.871,28.433c-0.345,0-0.692,0-1.033,0
		c-1.444,0-4.438,0.002-5.883-0.001c-1.138-0.001-2.017-0.667-2.304-1.741c-0.055-0.213-0.08-0.442-0.08-0.664
		c-0.01-2.685-0.004-5.368-0.004-8.048"/>
</g>
<g>
	<path fill="none" stroke="#FFFFFF" stroke-width="1.5" stroke-miterlimit="10" d="M285.871,58.818c-0.345,0-0.692,0-1.033,0
		c-1.444,0-4.438,0.002-5.883-0.002c-1.138,0-2.017-0.666-2.304-1.74c-0.055-0.213-0.08-0.441-0.08-0.664
		c-0.01-2.686-0.004-5.367-0.004-8.047c0-2.674-0.006-5.348,0-8.021c0.002-1.406,0.998-2.414,2.408-2.414
		c4.689-0.006,9.394,0.002,14.094-0.01c1.373-0.002,2.412,1.102,2.41,2.352c-0.021,2.318-0.002,6.961-0.008,9.279"/>
</g>
<g>
	<path fill="none" stroke="#FFFFFF" stroke-width="1.5" stroke-miterlimit="10" d="M281.267,42.361c-0.086,0-0.16,0.07-0.16,0.158
		v2.039c0,0.09,0.07,0.155,0.16,0.155h8.982c0.088,0,0.158-0.063,0.158-0.155V42.52c0-0.09-0.07-0.158-0.158-0.158H281.267
		L281.267,42.361z"/>
</g>
<g>
	<g>
		<path fill="none" stroke="#000000" stroke-width="1.5" stroke-miterlimit="10" d="M288.569,50.005
			c4.685,0.589,8.361,4.445,8.927,8.911"/>
	</g>
	<g>
		<path fill="none" stroke="#FFFFFF" stroke-width="1.5" stroke-miterlimit="10" d="M288.563,53.291
			c3.023,0.576,5.174,3.076,5.629,5.627"/>
	</g>
	<g>
		<path fill="#FFFFFF" d="M289.601,57.061c0.521,0,0.938,0.426,0.932,0.959c-0.008,0.518-0.426,0.914-0.948,0.912
			s-0.937-0.424-0.935-0.961C288.66,57.467,289.08,57.059,289.601,57.061z"/>
	</g>
</g>
<g>
	<path fill="none" stroke="#FFFFFF" stroke-width="1.5" stroke-miterlimit="10" d="M285.606,48.172h-5.127"/>
</g>
<g>
	<path fill="none" stroke="#FFFFFF" stroke-width="1.5" stroke-miterlimit="10" d="M285.606,51.445h-5.127"/>
</g>
<g>
	<path fill="none" stroke="#FFFFFF" stroke-width="1.5" stroke-miterlimit="10" d="M285.606,54.719h-5.127"/>
</g>
<g>
	<path fill="none" stroke="#000000" stroke-width="1.5" stroke-miterlimit="10" d="M285.871,58.818c-0.345,0-0.692,0-1.033,0
		c-1.444,0-4.438,0.002-5.883-0.002c-1.138,0-2.017-0.666-2.304-1.74c-0.055-0.213-0.08-0.441-0.08-0.664
		c-0.01-2.686-0.004-5.367-0.004-8.047"/>
</g>
<g id="Livello_110">
	<path fill="none" stroke="#FFFFFF" stroke-width="1.5" stroke-miterlimit="10" d="M65.718,15.639c0,2.448-1.995,4.434-4.454,4.434
		c-2.461,0-4.455-1.986-4.455-4.434c0-2.448,1.995-4.434,4.455-4.434C63.725,11.205,65.718,13.19,65.718,15.639"/>
</g>
<path fill="none" stroke="#41C363" stroke-width="1.5" stroke-miterlimit="10" d="M64.986,26.103l2.965-4.225
	c0.251-0.311,0.479-0.641,0.686-0.985l0.071-0.101l0.437-0.719c0.759-1.306,1.196-2.819,1.196-4.435"/>
<path fill="none" stroke="#000000" stroke-width="1.5" stroke-miterlimit="10" d="M70.339,15.639c0-0.027,0-0.054,0-0.081"/>
<path fill="none" stroke="#41C363" stroke-width="1.5" stroke-miterlimit="10" d="M70.339,15.639"/>
<path fill="none" stroke="#FFFFFF" stroke-width="1.5" stroke-miterlimit="10" d="M70.339,15.639c0-4.897-3.989-8.867-8.909-8.867
	c-4.919,0-8.908,3.97-8.908,8.867c0,2.153,0.773,4.127,2.055,5.664l6.862,9.854l3.604-5.137"/>
<g id="Livello_110_1_">
	<path fill="none" stroke="#FFFFFF" stroke-width="1.5" stroke-miterlimit="10" d="M65.718,45.639c0,2.448-1.995,4.437-4.454,4.437
		c-2.461,0-4.455-1.986-4.455-4.437c0-2.447,1.995-4.434,4.455-4.434S65.718,43.189,65.718,45.639"/>
</g>
<path fill="none" stroke="#000000" stroke-width="1.5" stroke-miterlimit="10" d="M64.986,56.104l2.965-4.226
	c0.251-0.312,0.479-0.642,0.686-0.985l0.071-0.101l0.437-0.719c0.759-1.306,1.196-2.819,1.196-4.435"/>
<path fill="none" stroke="#000000" stroke-width="1.5" stroke-miterlimit="10" d="M70.339,45.639c0-0.024,0-0.054,0-0.08"/>
<path fill="none" stroke="#41C363" stroke-width="1.5" stroke-miterlimit="10" d="M70.339,45.639"/>
<path fill="none" stroke="#FFFFFF" stroke-width="1.5" stroke-miterlimit="10" d="M70.339,45.639c0-4.896-3.989-8.867-8.909-8.867
	c-4.919,0-8.908,3.973-8.908,8.867c0,2.154,0.773,4.129,2.055,5.664l6.862,9.854l3.604-5.138"/>
<path fill="none" stroke="#FFFFFF" stroke-width="1.5" stroke-miterlimit="10" d="M106.01,29.333c0,0.457-0.372,0.828-0.829,0.828
	H90.807c-0.458,0-0.829-0.371-0.829-0.828V8.581c0-0.458,0.371-0.829,0.829-0.829h14.375c0.457,0,0.829,0.371,0.829,0.829v20.752
	H106.01z"/>
<circle fill="#41C363" cx="105.995" cy="10.674" r="1.64"/>
<path fill="none" stroke="#41C363" stroke-width="1.3" stroke-miterlimit="10" d="M108.187,7.918
	c0.826,0.654,1.352,1.646,1.352,2.754c0,1.089-0.507,2.063-1.306,2.718"/>
<path fill="none" stroke="#41C363" stroke-width="1.3" stroke-miterlimit="10" d="M109.729,6.246c1.3,1.039,2.132,2.635,2.132,4.428
	c0,1.891-0.926,3.564-2.348,4.593"/>
<circle fill="#FFFFFF" cx="105.995" cy="10.674" r="0.69"/>
<path fill="#FFFFFF" d="M100.811,11.144c0,0.153-0.123,0.276-0.277,0.276h-4.717c-0.153,0-0.276-0.123-0.276-0.276v-0.863
	c0-0.152,0.123-0.276,0.276-0.276h4.717c0.154,0,0.277,0.124,0.277,0.275V11.144z"/>
<rect x="89.955" y="16.484" fill="#FFFFFF" width="16.071" height="1.325"/>
<line fill="none" stroke="#FFFFFF" stroke-width="1.5" stroke-linecap="round" stroke-miterlimit="10" x1="92.652" y1="13.412" x2="92.652" y2="14.428"/>
<line fill="none" stroke="#FFFFFF" stroke-width="1.5" stroke-linecap="round" stroke-miterlimit="10" x1="92.652" y1="19.91" x2="92.652" y2="21.796"/>
<line fill="none" stroke="#FFFFFF" stroke-width="1.5" stroke-linecap="round" stroke-miterlimit="10" x1="93.02" y1="30.154" x2="93.02" y2="31.508"/>
<line fill="none" stroke="#FFFFFF" stroke-width="1.5" stroke-linecap="round" stroke-miterlimit="10" x1="103.032" y1="30.188" x2="103.032" y2="31.508"/>
<path fill="none" stroke="#FFFFFF" stroke-width="1.5" stroke-miterlimit="10" d="M106.01,59.333c0,0.457-0.372,0.828-0.829,0.828
	H90.807c-0.458,0-0.829-0.371-0.829-0.828V38.581c0-0.458,0.371-0.829,0.829-0.829h14.375c0.457,0,0.829,0.371,0.829,0.829v20.752
	H106.01z"/>
<circle cx="105.995" cy="40.674" r="1.641"/>
<path fill="none" stroke="#000000" stroke-width="1.3" stroke-miterlimit="10" d="M108.187,37.918
	c0.826,0.654,1.352,1.646,1.352,2.755c0,1.089-0.507,2.063-1.306,2.718"/>
<path fill="none" stroke="#000000" stroke-width="1.3" stroke-miterlimit="10" d="M109.729,36.246
	c1.3,1.039,2.132,2.635,2.132,4.428c0,1.891-0.926,3.564-2.348,4.594"/>
<circle fill="#FFFFFF" cx="105.995" cy="40.673" r="0.69"/>
<path fill="#FFFFFF" d="M100.811,41.145c0,0.152-0.123,0.275-0.277,0.275h-4.717c-0.153,0-0.276-0.123-0.276-0.275v-0.861
	c0-0.152,0.123-0.276,0.276-0.276l4.717,0.001c0.154,0,0.277,0.123,0.277,0.275V41.145z"/>
<rect x="89.955" y="46.484" fill="#FFFFFF" width="16.071" height="1.324"/>
<line fill="none" stroke="#FFFFFF" stroke-width="1.5" stroke-linecap="round" stroke-miterlimit="10" x1="92.652" y1="43.412" x2="92.652" y2="44.428"/>
<line fill="none" stroke="#FFFFFF" stroke-width="1.5" stroke-linecap="round" stroke-miterlimit="10" x1="92.652" y1="49.91" x2="92.652" y2="51.796"/>
<line fill="none" stroke="#FFFFFF" stroke-width="1.5" stroke-linecap="round" stroke-miterlimit="10" x1="93.02" y1="60.154" x2="93.02" y2="61.508"/>
<line fill="none" stroke="#FFFFFF" stroke-width="1.5" stroke-linecap="round" stroke-miterlimit="10" x1="103.032" y1="60.188" x2="103.032" y2="61.508"/>
<g>
	<path fill="none" stroke="#FFFFFF" stroke-width="1.5" stroke-miterlimit="10" d="M153.412,29.025c-9.115,0-17.061,0-26.177-0.003
		c-0.038,0-0.138,0.073-0.135-0.056c0.118-0.403,0.24-0.806,0.354-1.21c0.611-2.188,1.221-4.375,1.827-6.564
		c0.031-0.117,0.084-0.165,0.204-0.191c0.954-0.206,1.908-0.42,2.861-0.633c0.048-0.01,0.096-0.017,0.16-0.029
		c0,1.538,0,3.061,0,4.592"/>
	<path fill="none" stroke="#FFFFFF" stroke-width="1.5" stroke-miterlimit="10" d="M153.007,21.561
		c-0.009,1.813-0.015,3.625-0.02,5.437v2.761"/>
	<path fill="none" stroke="#FFFFFF" stroke-width="1.5" stroke-miterlimit="10" d="M144.679,24.928c0-1.522,0-3.046,0-4.583
		c0.058,0.005,0.1,0.004,0.142,0.013c0.982,0.217,1.966,0.435,2.946,0.658c0.065,0.015,0.132,0.067,0.177,0.119
		c0.502,0.59,1.001,1.184,1.5,1.776c0.032,0.038,0.065,0.074,0.131,0.146c0-0.093,0-0.147,0-0.202
		c0.006-2.142,0.01-4.283,0.021-6.424c0.001-0.17-0.045-0.286-0.166-0.407c-0.482-0.48-0.963-0.962-1.443-1.445"/>
	<path fill="none" stroke="#FFFFFF" stroke-width="1.5" stroke-miterlimit="10" d="M132.905,20.25
		c0.263-0.049,1.868-0.376,2.093-0.5c0.224-0.122,0.381-0.358,0.566-0.544c0.193-0.193,0.387-0.386,0.606-0.604
		c0.028,0.042,0.054,0.086,0.085,0.123c0.535,0.582,1.069,1.163,1.606,1.742c0.028,0.03,0.082,0.052,0.124,0.052
		c0.402,0.003,0.805,0.005,1.208-0.001c0.048-0.001,0.107-0.035,0.144-0.072c0.562-0.604,1.117-1.211,1.686-1.826
		c0.036,0.033,0.07,0.061,0.1,0.09c0.326,0.327,0.65,0.656,0.98,0.978c0.058,0.055,0.138,0.098,0.214,0.117
		c0.211,0.055,1.812,0.471,2.025,0.509"/>
	<path fill="none" stroke="#FFFFFF" stroke-width="1.5" stroke-miterlimit="10" d="M145.724,11.868c-4.771,0-9.54,0-14.321,0"/>
	<path fill="none" stroke="#FFFFFF" stroke-width="1.5" stroke-miterlimit="10" d="M132.701,11.561
		c0.067-0.642,0.116-1.287,0.22-1.922c0.18-1.136,0.508-2.226,1.179-3.182c0.734-1.05,1.756-1.66,3.002-1.903
		c0.369-0.072,0.745-0.102,1.119-0.151c0.249,0,0.496,0,0.745,0c0.311,0.038,0.622,0.063,0.929,0.115
		c1.814,0.302,3.063,1.324,3.779,3.007c0.373,0.874,0.569,1.794,0.686,2.733c0.054,0.443,0.089,0.89,0.125,1.334"/>
	<path fill="none" stroke="#FFFFFF" stroke-width="1.5" stroke-miterlimit="10" d="M133.332,11.885c3.519,0,7.025,0,10.545,0
		c-0.122,0.757-0.32,1.482-0.586,2.189c-0.426,1.133-0.986,2.189-1.784,3.107c-0.396,0.453-0.837,0.848-1.365,1.142
		c-1.087,0.604-2.162,0.563-3.219-0.079c-0.816-0.496-1.425-1.2-1.938-1.99c-0.845-1.304-1.372-2.733-1.646-4.259
		C133.335,11.96,133.336,11.927,133.332,11.885z"/>
</g>
<path fill="none" stroke="#41C363" stroke-width="1.5" stroke-miterlimit="10" d="M148.069,14.664
	c-0.512-0.514-1.022-1.029-1.536-1.542c-0.081-0.082-0.088-0.136-0.028-0.236c0.776-1.34,1.551-2.681,2.319-4.024
	c0.059-0.103,0.12-0.137,0.233-0.131c0.178,0.009,0.355,0.002,0.553,0.002c0,1.199,0,2.383,0,3.58c1.179,0,2.338,0,3.509,0
	c0-1.188,0-2.373,0-3.576c0.235,0,0.457-0.006,0.68,0.005c0.04,0.002,0.087,0.071,0.113,0.119c0.771,1.332,1.541,2.664,2.312,3.995
	c0.026,0.046,0.063,0.088,0.092,0.132c0,0.01,0,0.02,0,0.03c-1.069,1.078-2.144,2.155-3.211,3.236
	c-0.045,0.046-0.074,0.129-0.074,0.194c-0.01,1.745-0.018,3.49-0.021,5.235"/>
<g>
	<path fill="none" stroke="#FFFFFF" stroke-width="1.5" stroke-miterlimit="10" d="M153.412,61.025c-9.115,0-17.061,0-26.177-0.004
		c-0.038,0-0.138,0.069-0.135-0.059c0.118-0.4,0.24-0.806,0.354-1.21c0.611-2.188,1.221-4.376,1.827-6.563
		c0.031-0.116,0.084-0.166,0.204-0.19c0.954-0.205,1.908-0.42,2.861-0.633c0.048-0.011,0.096-0.019,0.16-0.029
		c0,1.538,0,3.062,0,4.593"/>
	<path fill="none" stroke="#FFFFFF" stroke-width="1.5" stroke-miterlimit="10" d="M153.007,53.561
		c-0.009,1.813-0.015,3.625-0.02,5.438v2.761"/>
	<path fill="none" stroke="#FFFFFF" stroke-width="1.5" stroke-miterlimit="10" d="M144.679,56.928c0-1.521,0-3.046,0-4.582
		c0.058,0.004,0.1,0.004,0.142,0.012c0.982,0.221,1.966,0.438,2.946,0.658c0.065,0.019,0.132,0.067,0.177,0.119
		c0.502,0.592,1.001,1.184,1.5,1.776c0.032,0.038,0.065,0.073,0.131,0.146c0-0.093,0-0.146,0-0.201
		c0.006-2.143,0.01-4.28,0.021-6.424c0.001-0.171-0.045-0.287-0.166-0.408c-0.482-0.479-0.963-0.961-1.443-1.441"/>
	<path fill="none" stroke="#FFFFFF" stroke-width="1.5" stroke-miterlimit="10" d="M132.905,52.25
		c0.263-0.049,1.868-0.376,2.093-0.5c0.224-0.123,0.381-0.359,0.566-0.545c0.193-0.191,0.387-0.385,0.606-0.604
		c0.028,0.043,0.054,0.086,0.085,0.123c0.535,0.582,1.069,1.159,1.606,1.738c0.028,0.03,0.082,0.055,0.124,0.055
		c0.402,0.004,0.805,0.004,1.208-0.002c0.048,0,0.107-0.035,0.144-0.072c0.562-0.604,1.117-1.211,1.686-1.825
		c0.036,0.032,0.07,0.062,0.1,0.091c0.326,0.326,0.65,0.655,0.98,0.979c0.058,0.058,0.138,0.1,0.214,0.117
		c0.211,0.055,1.812,0.471,2.025,0.508"/>
	<path fill="none" stroke="#FFFFFF" stroke-width="1.5" stroke-miterlimit="10" d="M145.724,43.868c-4.771,0-9.54,0-14.321,0"/>
	<path fill="none" stroke="#FFFFFF" stroke-width="1.5" stroke-miterlimit="10" d="M132.701,43.561
		c0.067-0.642,0.116-1.287,0.22-1.922c0.18-1.137,0.508-2.227,1.179-3.183c0.734-1.05,1.756-1.66,3.002-1.903
		c0.369-0.072,0.745-0.102,1.119-0.15c0.249,0,0.496,0,0.745,0c0.311,0.037,0.622,0.063,0.929,0.115
		c1.814,0.301,3.063,1.323,3.779,3.006c0.373,0.875,0.569,1.795,0.686,2.734c0.054,0.443,0.089,0.889,0.125,1.334"/>
	<path fill="none" stroke="#FFFFFF" stroke-width="1.5" stroke-miterlimit="10" d="M133.332,43.885c3.519,0,7.025,0,10.545,0
		c-0.122,0.758-0.32,1.482-0.586,2.189c-0.426,1.133-0.986,2.189-1.784,3.105c-0.396,0.45-0.837,0.85-1.365,1.143
		c-1.087,0.604-2.162,0.563-3.219-0.079c-0.816-0.496-1.425-1.2-1.938-1.99c-0.845-1.304-1.372-2.733-1.646-4.259
		C133.335,43.961,133.336,43.927,133.332,43.885z"/>
</g>
<path fill="none" stroke="#000000" stroke-width="1.5" stroke-miterlimit="10" d="M148.069,46.664
	c-0.512-0.516-1.022-1.029-1.536-1.543c-0.081-0.082-0.088-0.137-0.028-0.235c0.776-1.34,1.551-2.681,2.319-4.024
	c0.059-0.103,0.12-0.137,0.233-0.131c0.178,0.012,0.355,0.002,0.553,0.002c0,1.199,0,2.387,0,3.58c1.179,0,2.338,0,3.509,0
	c0-1.188,0-2.373,0-3.576c0.235,0,0.457-0.006,0.68,0.009c0.04,0.002,0.087,0.067,0.113,0.116c0.771,1.33,1.541,2.662,2.312,3.994
	c0.026,0.047,0.063,0.088,0.092,0.136c0,0.01,0,0.02,0,0.026c-1.069,1.078-2.144,2.155-3.211,3.236
	c-0.045,0.046-0.074,0.129-0.074,0.194c-0.01,1.745-0.018,3.489-0.021,5.235"/>
<line fill="none" stroke="#FFFFFF" stroke-width="1.5" stroke-linecap="round" stroke-linejoin="round" stroke-miterlimit="10" x1="183.058" y1="14.712" x2="183.058" y2="19.278"/>
<circle fill="#FFFFFF" cx="183.058" cy="23.012" r="1.094"/>
<polyline fill="none" stroke="#FFFFFF" stroke-width="1.5" stroke-linecap="round" stroke-linejoin="round" stroke-miterlimit="10" points="
	182.229,8.137 183.058,6.647 194.364,27 176.968,27 "/>
<polyline fill="none" stroke="#41C363" stroke-width="1.5" stroke-linecap="round" stroke-linejoin="round" stroke-miterlimit="10" points="
	177.144,27 171.749,27 183.058,6.647 "/>
<line fill="none" stroke="#FFFFFF" stroke-width="1.5" stroke-linecap="round" stroke-linejoin="round" stroke-miterlimit="10" x1="183.058" y1="45.712" x2="183.058" y2="50.277"/>
<circle fill="#FFFFFF" cx="183.058" cy="54.012" r="1.094"/>
<polyline fill="none" stroke="#FFFFFF" stroke-width="1.5" stroke-linecap="round" stroke-linejoin="round" stroke-miterlimit="10" points="
	182.229,39.137 183.058,37.646 194.364,58 176.968,58 "/>
<polyline fill="none" stroke="#000000" stroke-width="1.5" stroke-linecap="round" stroke-linejoin="round" stroke-miterlimit="10" points="
	177.144,58 171.749,58 183.058,37.646 "/>
<line fill="none" stroke="#FFFFFF" stroke-width="1.5" stroke-miterlimit="10" x1="321.502" y1="25.723" x2="321.502" y2="28.313"/>
<line fill="none" stroke="#FFFFFF" stroke-width="1.5" stroke-miterlimit="10" x1="319.252" y1="25.766" x2="328.458" y2="25.766"/>
<path fill="none" stroke="#FFFFFF" stroke-width="1.5" stroke-miterlimit="10" d="M332.208,28.082
	c-1.275,0.625-2.816,0.099-3.441-1.176c-0.627-1.275-0.101-2.816,1.176-3.442c0.352-0.173,0.738-0.263,1.131-0.263h0.056"/>
<line fill="none" stroke="#FFFFFF" stroke-width="1.5" stroke-miterlimit="10" x1="325.502" y1="25.723" x2="325.502" y2="30.313"/>
<path fill="none" stroke="#41C363" stroke-width="1.5" stroke-miterlimit="10" d="M331.071,23.199c1.421,0,2.572,1.151,2.572,2.572
	c0,0.995-0.574,1.901-1.474,2.326"/>
<path fill="none" stroke="#FFFFFF" stroke-width="1.5" stroke-miterlimit="10" d="M325.442,23.264c0-0.195-0.01-0.388-0.026-0.579
	c-0.299-3.163-2.954-5.581-6.131-5.581"/>
<circle fill="none" stroke="#FFFFFF" stroke-width="1.5" stroke-miterlimit="10" cx="319.287" cy="7.908" r="6.158"/>
<path fill="none" stroke="#41C363" stroke-width="1.5" stroke-miterlimit="10" d="M319.287,17.104c-3.402,0-6.159,2.758-6.16,6.16"
	/>
<polyline fill="none" stroke="#FFFFFF" stroke-width="1.5" stroke-miterlimit="10" points="313.128,23.264 313.128,29.694 
	318.211,29.694 "/>
<line fill="none" stroke="#FFFFFF" stroke-width="1.5" stroke-miterlimit="10" x1="321.502" y1="60.16" x2="321.502" y2="62.75"/>
<line fill="none" stroke="#FFFFFF" stroke-width="1.5" stroke-miterlimit="10" x1="319.252" y1="60.203" x2="328.458" y2="60.203"/>
<path fill="none" stroke="#FFFFFF" stroke-width="1.5" stroke-miterlimit="10" d="M332.206,62.52
	c-1.273,0.627-2.814,0.104-3.439-1.172c-0.627-1.271-0.102-2.813,1.172-3.438c0.354-0.176,0.742-0.266,1.135-0.266h0.056"/>
<line fill="none" stroke="#FFFFFF" stroke-width="1.5" stroke-miterlimit="10" x1="325.502" y1="60.16" x2="325.502" y2="64.75"/>
<path fill="none" stroke="#000000" stroke-width="1.5" stroke-miterlimit="10" d="M331.071,57.637c1.421,0,2.572,1.152,2.572,2.572
	c0,0.995-0.574,1.9-1.474,2.325"/>
<path fill="none" stroke="#FFFFFF" stroke-width="1.5" stroke-miterlimit="10" d="M325.442,57.701c0-0.195-0.01-0.391-0.026-0.579
	c-0.299-3.163-2.954-5.58-6.131-5.581"/>
<circle fill="none" stroke="#FFFFFF" stroke-width="1.5" stroke-miterlimit="10" cx="319.287" cy="42.346" r="6.157"/>
<path fill="none" stroke="#000000" stroke-width="1.5" stroke-miterlimit="10" d="M319.287,51.541c-3.402,0-6.159,2.758-6.16,6.16"
	/>
<polyline fill="none" stroke="#FFFFFF" stroke-width="1.5" stroke-miterlimit="10" points="313.128,57.701 313.128,64.131 
	318.211,64.131 "/>
</svg>
