<?xml version="1.0" encoding="utf-8"?>
<!-- Generator: Adobe Illustrator 16.0.0, SVG Export Plug-In . SVG Version: 6.00 Build 0)  -->
<!DOCTYPE svg PUBLIC "-//W3C//DTD SVG 1.1//EN" "http://www.w3.org/Graphics/SVG/1.1/DTD/svg11.dtd">
<svg version="1.1" id="Layer_1" xmlns="http://www.w3.org/2000/svg" xmlns:xlink="http://www.w3.org/1999/xlink" x="0px" y="0px"
	 width="99.402px" height="119.957px" viewBox="0 0 99.402 119.957" enable-background="new 0 0 99.402 119.957"
	 xml:space="preserve">
<path fill="#3E3E3E" d="M73.045,113.581c0,2.079-1.691,3.766-3.767,3.766H3.872c-2.087,0-3.77-1.687-3.77-3.766V11.129
	c0-2.08,1.687-3.768,3.77-3.768h65.403c2.079,0,3.767,1.688,3.767,3.768v102.451H73.045z"/>
<circle fill="#53BA65" cx="72.221" cy="20.65" r="7.463"/>
<path fill="none" stroke="#53BA65" stroke-width="1.3" stroke-miterlimit="10" d="M82.947,8.116c3.762,2.978,6.15,7.489,6.15,12.534
	c0,4.953-2.311,9.388-5.942,12.369"/>
<path fill="none" stroke="#53BA65" stroke-width="1.3" stroke-miterlimit="10" d="M89.05,0.508
	c5.916,4.725,9.701,11.993,9.701,20.146c0,8.601-4.217,16.218-10.682,20.897"/>
<circle fill="#3E3E3E" cx="72.221" cy="20.651" r="3.635"/>
<path fill="#FFFFFF" d="M49.394,22.792c0,0.694-0.565,1.257-1.259,1.257H26.672c-0.694,0-1.259-0.563-1.259-1.257v-3.925
	c0-0.692,0.565-1.257,1.259-1.257h21.462c0.698,0,1.259,0.561,1.259,1.253V22.792z"/>
<rect y="49.126" fill="#FFFFFF" width="73.124" height="3.99"/>
<line fill="none" stroke="#FFFFFF" stroke-linecap="round" stroke-miterlimit="10" x1="9.925" y1="30.765" x2="9.925" y2="39.406"/>
<line fill="none" stroke="#FFFFFF" stroke-linecap="round" stroke-miterlimit="10" x1="9.925" y1="62.672" x2="9.925" y2="79.294"/>
<line fill="none" stroke="#3E3E3E" stroke-linecap="round" stroke-miterlimit="10" x1="9.925" y1="102.839" x2="9.925" y2="119.457"/>
<line fill="none" stroke="#3E3E3E" stroke-linecap="round" stroke-miterlimit="10" x1="63.512" y1="102.839" x2="63.512" y2="119.457"/>
</svg>
